<svg viewBox="0 0 121.7 122.88" xmlns="http://www.w3.org/2000/svg"><path d="M53.62 0c14.81 0 28.21 6 37.91 15.7 9.7 9.7 15.7 23.11 15.7 37.91 0 10.83-3.21 20.91-8.74 29.35l23.2 25.29-16 14.63-22.37-24.62a53.359 53.359 0 0 1-29.7 8.98c-14.81 0-28.21-6-37.91-15.7C6 81.82 0 68.42 0 53.62 0 38.81 6 25.41 15.7 15.7 25.41 6 38.81 0 53.62 0ZM87.3 19.93C78.68 11.31 66.77 5.98 53.62 5.98c-13.15 0-25.06 5.33-33.68 13.95-8.63 8.62-13.96 20.53-13.96 33.69 0 13.15 5.33 25.06 13.95 33.68 8.62 8.62 20.53 13.95 33.68 13.95 13.16 0 25.06-5.33 33.68-13.95 8.62-8.62 13.95-20.53 13.95-33.68.01-13.16-5.32-25.07-13.94-33.69Z" fill-rule="evenodd" clip-rule="evenodd" style="fill:#fff"/><path d="M30.964 36.39h47.234a3.07 2.823 0 0 1 3.04 2.815v29.852a3.04 2.795 0 0 1-.53 1.598 1.207 1.11 0 0 1-.287.399 1.138 1.046 0 0 1-.286.184 3.04 2.795 0 0 1-1.959.658H30.964a3.07 2.823 0 0 1-3.04-2.795V39.205a3.07 2.823 0 0 1 3.04-2.815zm-.13 31.481 15.97-15.261-15.97-12.41ZM49.21 54.514 32.145 69.712h44.724L60.564 54.514l-4.776 3.678a1.172 1.078 0 0 1-1.498 0zm13.72-1.932 15.398 15.413V40.063ZM32.337 38.55l22.657 16.887 21.66-16.887Z" style="stroke-width:.4164;fill:#fff"/></svg>