<?xml version="1.0" encoding="UTF-8" standalone="no"?>
<!-- Created with Inkscape (http://www.inkscape.org/) -->

<svg
   width="800mm"
   height="320mm"
   viewBox="0 0 800 320"
   version="1.1"
   id="svg5"
   inkscape:version="1.1.1 (3bf5ae0d25, 2021-09-20)"
   sodipodi:docname="mailspy-full.svg"
   xmlns:inkscape="http://www.inkscape.org/namespaces/inkscape"
   xmlns:sodipodi="http://sodipodi.sourceforge.net/DTD/sodipodi-0.dtd"
   xmlns="http://www.w3.org/2000/svg"
   xmlns:svg="http://www.w3.org/2000/svg">
  <sodipodi:namedview
     id="namedview7"
     pagecolor="#ffffff"
     bordercolor="#666666"
     borderopacity="1.0"
     inkscape:pageshadow="2"
     inkscape:pageopacity="0.0"
     inkscape:pagecheckerboard="0"
     inkscape:document-units="mm"
     showgrid="false"
     inkscape:zoom="0.15861561"
     inkscape:cx="1472.1124"
     inkscape:cy="967.74839"
     inkscape:window-width="1920"
     inkscape:window-height="1027"
     inkscape:window-x="-8"
     inkscape:window-y="-8"
     inkscape:window-maximized="1"
     inkscape:current-layer="layer1" />
  <defs
     id="defs2" />
   <style>
      path, text {
         fill: #212529;
      }
      @media (prefers-color-scheme: dark) {
         path, text {
            fill: #c9d1d9;
         }
      }
  </style>
  <g
     inkscape:label="main"
     inkscape:groupmode="layer"
     id="layer1">
    <path
       d="m 135.79407,48.108748 c 27.6706,0 52.70675,11.198501 70.82999,29.302755 18.12323,18.104256 29.33347,43.132907 29.33347,70.755847 0,20.21332 -5.99746,39.0268 -16.32959,54.77933 l 43.3463,47.20174 -29.89401,27.30565 -41.79552,-45.95117 a 99.69453,99.590134 0 0 1 -55.49064,16.76043 c -27.67062,0 -52.706857,-11.1985 -70.830078,-29.30276 C 46.822114,200.819 35.611873,175.809 35.611873,148.18605 c 0,-27.64164 11.210241,-52.651669 29.333471,-70.774547 C 83.087213,59.307249 108.12345,48.108748 135.79407,48.108748 Z m 62.92675,37.197717 C 182.6155,69.217939 160.36317,59.269933 135.79407,59.269933 c -24.56911,0 -46.821465,9.948006 -62.926846,26.036532 -16.124039,16.088465 -26.082465,38.317515 -26.082465,62.879585 0,24.54338 9.958426,46.77242 26.063817,62.86087 16.105322,16.08853 38.357674,26.03653 62.926764,26.03653 24.58783,0 46.82146,-9.948 62.92684,-26.03653 16.10539,-16.08845 26.06381,-38.31749 26.06381,-62.86087 0.0212,-24.56207 -9.93978,-46.79112 -26.04517,-62.879585 z"
       fill-rule="evenodd"
       clip-rule="evenodd"
       style="fill-opacity:1;stroke-width:1.86739"
       id="path824" />
    <path
       d="m 93.464192,116.02769 h 88.250748 a 5.7359057,5.2688946 0 0 1 5.67982,5.25395 v 55.71627 a 5.6798546,5.216635 0 0 1 -0.99023,2.98257 2.2551264,2.0717226 0 0 1 -0.53597,0.74463 2.1262088,1.952272 0 0 1 -0.53457,0.34354 5.6798546,5.216635 0 0 1 -3.66014,1.22807 H 93.464192 a 5.7359057,5.2688946 0 0 1 -5.679901,-5.21664 v -55.79837 a 5.7359057,5.2688946 0 0 1 5.679901,-5.25395 z m -0.242915,58.75668 29.837943,-28.4834 -29.837943,-23.16225 z M 127.55455,149.85464 95.670721,178.2204 h 83.561159 l -30.46388,-28.36576 -8.92336,6.86463 a 2.1897334,2.0119973 0 0 1 -2.79877,0 z m 25.63405,-3.60595 28.76919,28.76706 v -52.13274 z m -57.159159,-26.18954 42.331779,31.51819 40.46892,-31.51819 z"
       style="fill-opacity:1;stroke-width:0.777579"
       id="path826" />
    <text
       xml:space="preserve"
       style="font-style:normal;font-weight:normal;font-size:134.056px;line-height:1.25;font-family:sans-serif;fill-opacity:1;stroke:none;stroke-width:0.264583"
       x="292.74783"
       y="197.811"
       id="text2710"><tspan
         sodipodi:role="line"
         id="tspan2708"
         style="font-style:normal;font-variant:normal;font-weight:600;font-stretch:normal;font-size:134.056px;font-family:'Segoe UI';-inkscape-font-specification:'Segoe UI Semi-Bold';fill-opacity:1;stroke-width:0.264583"
         x="292.74783"
         y="197.811">MailSpy</tspan></text>
  </g>
</svg>
